<?xml version="1.0" encoding="UTF-8"?>
<svg width="380px" height="200px" viewBox="0 0 380 200" version="1.1" xmlns="http://www.w3.org/2000/svg" xmlns:xlink="http://www.w3.org/1999/xlink">
    <!-- Generator: Sketch 53 (72520) - https://sketchapp.com -->
    <title>lv</title>
    <desc>Created with Sketch.</desc>
    <defs>
        <linearGradient x1="50%" y1="0%" x2="50%" y2="100%" id="linearGradient-1">
            <stop stop-color="#4AD496" offset="0%"></stop>
            <stop stop-color="#28CB75" offset="100%"></stop>
        </linearGradient>
        <linearGradient x1="50%" y1="0%" x2="50%" y2="100%" id="linearGradient-2">
            <stop stop-color="#FFFFFF" stop-opacity="0.704818619" offset="0%"></stop>
            <stop stop-color="#FFFFFF" stop-opacity="0.0363581731" offset="100%"></stop>
        </linearGradient>
    </defs>
    <g id="训管动态" stroke="none" stroke-width="1" fill="none" fill-rule="evenodd">
        <g id="人员管理-局情况" transform="translate(-665.000000, -100.000000)">
            <g id="排序方式" transform="translate(210.000000, 10.000000)">
                <g id="在位率" transform="translate(455.000000, 90.000000)">
                    <g id="lv">
                        <rect id="矩形" fill="url(#linearGradient-1)" x="0" y="0" width="380" height="200" rx="10"></rect>
                        <g id="置顶" transform="translate(24.000000, 113.000000)">
                            <polygon id="路径-2" fill="url(#linearGradient-2)" points="0.806548165 48 50 35.5 86 48 112 28.9688231 154 9.09494702e-13 206 42.4151433 239.981569 28.9688231 279.043407 35.5 329.806548 13.1105445 329.806548 71.8325786 0.806548165 71.8325786"></polygon>
                            <polyline id="路径-2" stroke="#FFFFFF" stroke-width="3" points="0.806548165 48.2691484 50 36 86.7585572 48.2691484 154 1.14042109e-12 206 42.4151433 224.353039 36 239.981569 28.9688231 281.043013 35.9162893 329.806548 13.1105445"></polyline>
                        </g>
                    </g>
                </g>
            </g>
        </g>
    </g>
</svg>