<?xml version="1.0" encoding="UTF-8"?>
<svg width="16px" height="18px" viewBox="0 0 16 18" version="1.1" xmlns="http://www.w3.org/2000/svg" xmlns:xlink="http://www.w3.org/1999/xlink">
    <title>daochu</title>
    <g id="训管动态" stroke="none" stroke-width="1" fill="none" fill-rule="evenodd">
        <g id="人员管理-V2各局情况" transform="translate(-1795.000000, -235.000000)" fill="#FFFFFF">
            <g id="排序方式" transform="translate(210.000000, 0.000000)">
                <g id="查询" transform="translate(1140.000000, 224.000000)">
                    <g id="新增" transform="translate(430.000000, 2.000000)">
                        <g id="daochu" transform="translate(15.000000, 9.000000)">
                            <path d="M15.2,11.79644 C14.7584,11.79644 14.4,12.15484 14.4,12.59644 L14.4,15.79644 L1.6,15.79644 L1.6,12.59644 C1.6,12.15484 1.2416,11.79644 0.8,11.79644 C0.3584,11.79644 0,12.15484 0,12.59644 L0,16.59644 C0,17.03804 0.3584,17.39644 0.8,17.39644 L15.2,17.39644 C15.6416,17.39644 16,17.03804 16,16.59644 L16,12.59644 C16,12.15484 15.6416,11.79644 15.2,11.79644" id="Fill-1"></path>
                            <path d="M2.6,7.20192 C2.8008,7.20192 3.002,7.12672 3.1576,6.97552 L7.1604,3.08392 L7.1916,12.39912 C7.1928,12.84032 7.5508,13.19632 7.9916,13.19632 L7.994,13.19632 C8.436,13.19472 8.7928,12.83552 8.7916,12.39352 L8.7604,3.07632 L12.8464,6.98952 C13.1656,7.29472 13.6724,7.28432 13.9776,6.96512 C14.2832,6.64592 14.2724,6.13952 13.9536,5.83392 L8.508,0.61872 C8.5004,0.61152 8.4912,0.60832 8.4836,0.60152 C8.4388,0.56152 8.3912,0.52792 8.3408,0.49992 C8.3256,0.49192 8.3116,0.48312 8.296,0.47592 C8.2348,0.44672 8.1712,0.42432 8.1056,0.41192 C8.0944,0.40992 8.0828,0.40992 8.0712,0.40832 C8.0132,0.39952 7.9552,0.39792 7.8972,0.40232 C7.8804,0.40352 7.864,0.40392 7.8472,0.40632 C7.7792,0.41552 7.7128,0.43232 7.6488,0.45872 C7.6456,0.45992 7.642,0.45992 7.6392,0.46112 C7.6312,0.46472 7.6252,0.47112 7.6172,0.47472 C7.5644,0.49952 7.514,0.53072 7.4664,0.56792 C7.452,0.57912 7.4376,0.58912 7.424,0.60112 C7.4152,0.60912 7.4052,0.61472 7.3968,0.62312 L2.0424,5.82832 C1.7256,6.13632 1.7184,6.64312 2.0264,6.95992 C2.1832,7.12112 2.3916,7.20192 2.6,7.20192" id="Fill-3"></path>
                        </g>
                    </g>
                </g>
            </g>
        </g>
    </g>
</svg>