<?xml version="1.0" encoding="UTF-8"?>
<svg width="380px" height="200px" viewBox="0 0 380 200" version="1.1" xmlns="http://www.w3.org/2000/svg" xmlns:xlink="http://www.w3.org/1999/xlink">
    <!-- Generator: Sketch 53 (72520) - https://sketchapp.com -->
    <title>cheng</title>
    <desc>Created with Sketch.</desc>
    <defs>
        <linearGradient x1="50%" y1="0%" x2="50%" y2="100%" id="linearGradient-1">
            <stop stop-color="#FAA95E" offset="0%"></stop>
            <stop stop-color="#FC814F" offset="100%"></stop>
        </linearGradient>
        <linearGradient x1="50%" y1="0%" x2="50%" y2="100%" id="linearGradient-2">
            <stop stop-color="#FFFFFF" stop-opacity="0.704818619" offset="0%"></stop>
            <stop stop-color="#FFFFFF" stop-opacity="0.0363581731" offset="100%"></stop>
        </linearGradient>
    </defs>
    <g id="训管动态" stroke="none" stroke-width="1" fill="none" fill-rule="evenodd">
        <g id="人员管理-局情况" transform="translate(-1075.000000, -100.000000)">
            <g id="排序方式" transform="translate(210.000000, 10.000000)">
                <g id="在位率" transform="translate(865.000000, 90.000000)">
                    <g id="cheng">
                        <rect id="矩形" fill="url(#linearGradient-1)" x="0" y="0" width="380" height="200" rx="10"></rect>
                        <g id="置顶" transform="translate(24.000000, 113.000000)">
                            <polygon id="路径-2" fill="url(#linearGradient-2)" points="0.806548165 57.6684978 46.2205727 41.6132241 96 48 126.472244 24.1345742 171.84689 9.7543278 202 41.6132241 248 9.09494702e-13 288 24.1345742 329.806548 36 329.806548 71.8325786 0.806548165 71.8325786"></polygon>
                            <polyline id="路径-2" stroke="#FFFFFF" stroke-width="3" points="0.806548165 57.9376462 47.0207987 41.8823725 96 48.2691484 126.472244 24.1345742 171.84689 9.7543278 202 41.6132241 248 4.54747351e-13 288 24.1345742 329.806548 36"></polyline>
                        </g>
                    </g>
                </g>
            </g>
        </g>
    </g>
</svg>