<?xml version="1.0" encoding="UTF-8"?>
<svg width="172px" height="30px" viewBox="0 0 172 30" version="1.1" xmlns="http://www.w3.org/2000/svg" xmlns:xlink="http://www.w3.org/1999/xlink">
    <!-- Generator: Sketch 53 (72520) - https://sketchapp.com -->
    <title>tixing</title>
    <desc>Created with Sketch.</desc>
    <defs>
        <linearGradient x1="100%" y1="50%" x2="0.131967905%" y2="50%" id="linearGradient-1">
            <stop stop-color="#11BE9D" offset="0%"></stop>
            <stop stop-color="#1FE77F" offset="100%"></stop>
        </linearGradient>
        <path d="M8,0 L170,0 C171.104569,-2.02906125e-16 172,0.8954305 172,2 L172,28 C172,29.1045695 171.104569,30 170,30 L0,30 L0,8 C-5.41083001e-16,3.581722 3.581722,8.11624501e-16 8,0 Z" id="path-2"></path>
    </defs>
    <g id="训管动态" stroke="none" stroke-width="1" fill="none" fill-rule="evenodd">
        <g id="军事训练-共同训练-军事体育-军事成绩评定" transform="translate(-210.000000, -339.000000)">
            <g id="体型" transform="translate(210.000000, 339.000000)">
                <g id="分组-3">
                    <g id="tixing">
                        <mask id="mask-3" fill="white">
                            <use xlink:href="#path-2"></use>
                        </mask>
                        <use id="Mask" fill="url(#linearGradient-1)" xlink:href="#path-2"></use>
                        <g id="分组" opacity="0.501836868" mask="url(#mask-3)" fill="#FFFFFF">
                            <g transform="translate(11.000000, 4.000000)">
                                <path d="M15.6757787,32.6815319 C15.1842043,32.6815319 14.719183,32.4622979 14.3978213,32.0803404 L7.09501277,23.4076596 C6.61160851,22.8323404 6.68514043,21.9731064 7.26045957,21.4890213 C7.83373617,21.0049362 8.69433191,21.0777872 9.17909787,21.6537872 L15.6757787,29.3705532 L22.1826723,21.6415319 C22.6667574,21.0655319 23.5259915,20.9926809 24.1013106,21.476766 C24.6766298,21.9615319 24.7501617,22.820766 24.2660766,23.3954043 L16.9537362,32.0810213 C16.634417,32.461617 16.1687149,32.6808511 15.6764596,32.6815319 L15.6757787,32.6815319 Z" id="Fill-1"></path>
                                <path d="M28.580017,14.059166 C28.2981447,14.059166 28.0135489,13.972017 27.7698043,13.7902298 C27.1658894,13.3422298 27.0392511,12.4891234 27.4879319,11.8858894 C27.9849532,11.2166128 28.3226553,10.4683574 28.4921872,9.66086809 C28.5718468,9.27822979 28.6126979,8.88333617 28.6126979,8.48980426 C28.6126979,5.31363404 25.9866553,2.7291234 22.7587404,2.7291234 C20.1646979,2.7291234 17.8504851,4.44010213 17.1328681,6.8891234 C16.9626553,7.46988936 16.4295489,7.86750638 15.8263149,7.86750638 L15.7990809,7.86750638 L15.4988255,7.86137872 C14.9044426,7.84980426 14.3869957,7.45354894 14.2195064,6.8836766 C13.5012085,4.43397447 11.1869957,2.7236766 8.59363404,2.7236766 C5.3650383,2.7236766 2.7396766,5.30750638 2.7396766,8.48435745 C2.7396766,8.87788936 2.77984681,9.27210213 2.86086809,9.65678298 C3.02563404,10.4418043 3.34971915,11.1716766 3.82359149,11.8246128 C4.26546383,12.4326128 4.12997447,13.2843574 3.52129362,13.7262298 C2.91329362,14.1681021 2.06086809,14.0326128 1.6196766,13.4239319 C0.919080851,12.459166 0.439761702,11.3793362 0.19533617,10.2150809 C0.076187234,9.64588936 0.0162723404,9.0637617 0.0162723404,8.48435745 C0.0162723404,3.80554894 3.8637617,0.000272340426 8.59363404,0.000272340426 C11.4661447,0.000272340426 14.1058043,1.44231489 15.6778894,3.70546383 C17.2492936,1.44571915 19.8875915,0.00571914894 22.7587404,0.00571914894 C27.4879319,0.00571914894 31.3361021,3.8116766 31.3361021,8.48980426 C31.3361021,9.07057021 31.2761872,9.65133617 31.1577191,10.2184851 C30.9064851,11.4154213 30.4081021,12.5224851 29.6741447,13.5090383 C29.4072511,13.8692085 28.996017,14.059166 28.580017,14.059166" id="Fill-3"></path>
                                <path d="M14.4563064,22.4268936 C14.3684766,22.4268936 14.2806468,22.4180426 14.1934979,22.4010213 C13.8006468,22.3240851 13.4622638,22.077617 13.2675404,21.7290213 L9.90141277,15.6973617 L8.04949787,18.4643404 C7.80166809,18.8347234 7.38839149,19.0600851 6.94311489,19.0682553 L1.38737021,19.1710638 L1.36149787,19.1710638 C0.621412766,19.1710638 0.014093617,18.5780426 0.000476595745,17.8345532 C-0.0131404255,17.0822128 0.584646809,16.4612766 1.33630638,16.4476596 L6.1819234,16.3584681 L8.87468936,12.3353191 C9.13749787,11.9417872 9.57800851,11.709617 10.0614128,11.7320851 C10.5346043,11.7504681 10.9642213,12.0146383 11.1950298,12.4285957 L14.8627745,18.9994894 L17.397583,16.9780426 C17.6392851,16.7860426 17.9381787,16.6811915 18.2466043,16.6811915 L29.2927319,16.6811915 C30.0450723,16.6811915 30.654434,17.2905532 30.654434,18.0428936 C30.654434,18.7945532 30.0450723,19.4045957 29.2927319,19.4045957 L18.7238809,19.4045957 L15.3053277,22.1293617 C15.0622638,22.3240851 14.7620085,22.4268936 14.4563064,22.4268936" id="Fill-5"></path>
                            </g>
                        </g>
                    </g>
                </g>
            </g>
        </g>
    </g>
</svg>