<?xml version="1.0" encoding="UTF-8"?>
<svg width="380px" height="200px" viewBox="0 0 380 200" version="1.1" xmlns="http://www.w3.org/2000/svg" xmlns:xlink="http://www.w3.org/1999/xlink">
    <!-- Generator: Sketch 53 (72520) - https://sketchapp.com -->
    <title>zi</title>
    <desc>Created with Sketch.</desc>
    <defs>
        <linearGradient x1="50%" y1="0%" x2="50%" y2="100%" id="linearGradient-1">
            <stop stop-color="#7F28FF" offset="0%"></stop>
            <stop stop-color="#5200D2" offset="100%"></stop>
        </linearGradient>
        <linearGradient x1="50%" y1="0%" x2="50%" y2="100%" id="linearGradient-2">
            <stop stop-color="#FFFFFF" stop-opacity="0.704818619" offset="0%"></stop>
            <stop stop-color="#FFFFFF" stop-opacity="0.0363581731" offset="100%"></stop>
        </linearGradient>
    </defs>
    <g id="训管动态" stroke="none" stroke-width="1" fill="none" fill-rule="evenodd">
        <g id="人员管理-局情况" transform="translate(-1485.000000, -100.000000)">
            <g id="排序方式" transform="translate(210.000000, 10.000000)">
                <g id="在位率" transform="translate(1275.000000, 90.000000)">
                    <g id="zi">
                        <rect id="矩形" fill="url(#linearGradient-1)" x="0" y="0" width="380" height="200" rx="10"></rect>
                        <g id="置顶" transform="translate(24.000000, 123.000000)">
                            <polygon id="路径-2" fill="url(#linearGradient-2)" points="0.806548165 38 40.1587467 14.2482528 74.6649673 31.6132241 105 4.11941225 153.327212 0.360865134 188.361781 34.7373317 226.882465 4.11941225 269.08497 27 329.806548 14.2482528 329.806548 61.8325786 0.806548165 61.8325786"></polygon>
                            <polyline id="路径-2" stroke="#FFFFFF" stroke-width="3" points="0.806548165 38.2691484 40.1587467 14.2482528 74.6649673 31.8823725 105 4.11941225 153.327212 0.63001354 188.361781 34.7373317 226.882465 4.38856066 270.800019 27 329.806548 14.1345742"></polyline>
                        </g>
                    </g>
                </g>
            </g>
        </g>
    </g>
</svg>