<?xml version="1.0" encoding="UTF-8"?>
<svg width="380px" height="200px" viewBox="0 0 380 200" version="1.1" xmlns="http://www.w3.org/2000/svg" xmlns:xlink="http://www.w3.org/1999/xlink">
    <!-- Generator: Sketch 53 (72520) - https://sketchapp.com -->
    <title>分组 9</title>
    <desc>Created with Sketch.</desc>
    <defs>
        <linearGradient x1="50%" y1="0%" x2="50%" y2="100%" id="linearGradient-1">
            <stop stop-color="#2280E5" offset="0%"></stop>
            <stop stop-color="#0145DB" offset="100%"></stop>
        </linearGradient>
        <linearGradient x1="50%" y1="0%" x2="50%" y2="100%" id="linearGradient-2">
            <stop stop-color="#FFFFFF" stop-opacity="0.704818619" offset="0%"></stop>
            <stop stop-color="#FFFFFF" stop-opacity="0.0363581731" offset="100%"></stop>
        </linearGradient>
    </defs>
    <g id="训管动态" stroke="none" stroke-width="1" fill="none" fill-rule="evenodd">
        <g id="人员管理-局情况" transform="translate(-255.000000, -100.000000)">
            <g id="排序方式" transform="translate(210.000000, 10.000000)">
                <g id="在位率" transform="translate(45.000000, 90.000000)">
                    <g id="分组-9">
                        <rect id="矩形" fill="url(#linearGradient-1)" x="0" y="0" width="380" height="200" rx="10"></rect>
                        <g id="置顶" transform="translate(24.000000, 112.000000)">
                            <polygon id="路径-2" fill="url(#linearGradient-2)" points="0.806548165 49 48.1774484 58.6684978 74.6649673 42.6132241 101.344132 7.77912071 153.327212 11.3608651 188.361781 33.2238093 226.882465 15.1194122 269.08497 49 329.806548 0.730851594 329.806548 72.8325786 0.806548165 72.8325786"></polygon>
                            <polyline id="路径-2" stroke="#FFFFFF" stroke-width="3" points="0.806548165 49.2691484 48.1774484 58.9376462 74.6649673 42.8823725 101.344132 8.04826912 153.327212 11.6300135 188.361781 33.4929577 226.882465 15.3885607 269.08497 49.2691484 329.806548 1"></polyline>
                        </g>
                    </g>
                </g>
            </g>
        </g>
    </g>
</svg>